<?xml version="1.0" encoding="UTF-8" standalone="no"?>
<!-- Created with Inkscape (http://www.inkscape.org/) -->

<svg
   width="581.45032mm"
   height="114.72599mm"
   viewBox="0 0 581.45032 114.72599"
   version="1.1"
   id="svg5"
   xml:space="preserve"
   inkscape:version="1.2.1 (9c6d41e410, 2022-07-14)"
   sodipodi:docname="icones.svg"
   xmlns:inkscape="http://www.inkscape.org/namespaces/inkscape"
   xmlns:sodipodi="http://sodipodi.sourceforge.net/DTD/sodipodi-0.dtd"
   xmlns="http://www.w3.org/2000/svg"
   xmlns:svg="http://www.w3.org/2000/svg"><sodipodi:namedview
     id="namedview7"
     pagecolor="#ffffff"
     bordercolor="#000000"
     borderopacity="0.25"
     inkscape:showpageshadow="2"
     inkscape:pageopacity="0.0"
     inkscape:pagecheckerboard="0"
     inkscape:deskcolor="#d1d1d1"
     inkscape:document-units="mm"
     showgrid="false"
     inkscape:zoom="0.52221045"
     inkscape:cx="-937.36156"
     inkscape:cy="396.39191"
     inkscape:window-width="1920"
     inkscape:window-height="1009"
     inkscape:window-x="1358"
     inkscape:window-y="-8"
     inkscape:window-maximized="1"
     inkscape:current-layer="layer1" /><defs
     id="defs2" /><g
     inkscape:label="Camada 1"
     inkscape:groupmode="layer"
     id="layer1"
     transform="translate(-219.70383,-158.27377)"><g
       id="g1574"
       transform="translate(242.34461,-174.86987)"
       inkscape:export-filename="play_pause.png"
       inkscape:export-xdpi="96"
       inkscape:export-ydpi="96"><rect
         style="fill:#fb0000;fill-opacity:1;stroke:none;stroke-width:0.200526;stroke-opacity:1"
         id="rect1262"
         width="98.880562"
         height="101.74668"
         x="333.90109"
         y="336.76721" /><path
         style="fill:#000000;fill-opacity:1;stroke:none;stroke-width:0.264583"
         d="m 339.81834,333.71315 c -9.9123,1.54811 -11.90625,9.85396 -11.90625,18.40466 v 63.5 c 0,7.94411 -2.15961,19.37781 2.65726,26.19374 5.47227,7.7433 16.93222,5.55625 25.12399,5.55625 h 50.00625 c 7.84092,0 16.90899,1.25995 24.60625,-0.21299 10.31478,-1.97379 11.37708,-10.91062 11.37708,-19.63076 v -63.23541 c 0,-7.86765 2.13757,-19.08381 -3.04747,-25.66458 -5.74146,-7.28692 -17.38657,-5.02708 -25.52753,-5.02708 h -48.94791 c -7.84464,0 -16.59626,-1.09353 -24.34167,0.11617 m 53.71041,28.54984 c 2.72812,-0.55959 10.48253,-1.09379 12.32059,1.24645 1.80287,2.295 0.644,8.52779 0.644,11.36253 v 30.69167 13.49375 c 0,2.07804 -0.23019,4.10289 -2.64584,4.65825 -2.72441,0.62601 -10.45898,1.06416 -12.32455,-1.23322 -2.05052,-2.52518 -0.90461,-8.53202 -0.90461,-11.62711 v -30.95625 c 0,-4.56883 -0.21326,-9.19533 0.0106,-13.75834 0.0871,-1.77244 1.04193,-3.49646 2.89983,-3.87773 m 20.6375,-10e-4 c 2.65748,-0.51408 10.14227,-1.07923 12.06659,1.025 2.05872,2.25134 0.898,8.43333 0.898,11.32046 v 30.95625 13.49375 c -8e-4,2.02168 -0.31539,4.12194 -2.64584,4.65825 -2.69293,0.61966 -10.67011,1.093 -12.47404,-1.26841 -1.90659,-2.49608 -0.75512,-8.57091 -0.75512,-11.59192 v -30.95631 c 0,-4.40955 -0.0214,-8.81962 2.6e-4,-13.22917 0.0101,-2.04787 0.64532,-3.96981 2.91015,-4.40796 m -73.01335,1.87696 c 2.9038,-0.82947 7.6827,3.51657 10.04252,4.96226 9.08262,5.56445 18.23958,11.02624 27.25208,16.70314 2.44846,1.54226 4.95433,2.99297 7.40834,4.52596 1.04933,0.65564 2.37781,1.40547 2.43099,2.79824 0.0577,1.51897 -1.29672,2.32807 -2.43099,3.01572 -2.56646,1.55575 -5.10752,3.15304 -7.67292,4.71064 -8.31109,5.04587 -16.58011,10.16265 -24.87083,15.24212 -3.08081,1.88753 -7.27208,5.69727 -10.84792,6.32618 -4.2663,0.75036 -2.91042,-7.80335 -2.91042,-10.24493 v -35.45416 c 0,-3.17156 -0.0791,-6.3545 0.004,-9.525 0.0314,-1.20148 0.25369,-2.67679 1.59526,-3.06017 z"
         id="path1260" /></g><g
       id="g1635"
       transform="translate(667.14082,-180.60207)"
       inkscape:export-filename="g1635.png"
       inkscape:export-xdpi="96"
       inkscape:export-ydpi="96"><rect
         style="fill:#fb0000;fill-opacity:1;stroke:none;stroke-width:0.200526;stroke-opacity:1"
         id="rect1262-7"
         width="98.880562"
         height="101.74668"
         x="27.944523"
         y="348.94812" /><path
         style="fill:#000000;fill-opacity:1;stroke:none;stroke-width:0.264583"
         d="m 31.712182,339.44535 c -9.92764,1.55052 -11.90625,9.83695 -11.90625,18.40466 v 63.5 c 0,7.94411 -2.15961,19.37781 2.65727,26.19374 5.47227,7.7433 16.93222,5.55625 25.12398,5.55625 h 50.00625 c 7.840928,0 16.908988,1.25995 24.606248,-0.21299 10.31479,-1.97379 11.37709,-10.91062 11.37709,-19.63076 v -63.23541 c 0,-7.86765 2.13757,-19.08381 -3.04748,-25.66458 -5.74146,-7.28692 -17.38656,-5.02708 -25.52753,-5.02708 H 56.053852 c -7.84463,0 -16.59626,-1.09353 -24.34167,0.11617 m 14.02292,22.99253 c 4.8514,-0.93847 10.66562,-0.0899 15.61041,-0.0899 h 32.54375 10.847918 c 1.68513,0 3.62267,-0.22622 4.87944,1.14829 1.10781,1.21179 0.94139,2.88978 0.94139,4.40795 v 9.26042 38.1 c 0,3.55124 1.78329,13.39427 -2.64583,14.66506 -4.4368,1.27344 -10.725678,0.1516 -15.345828,0.1516 h -33.86667 -10.58333 c -1.75181,0 -3.63855,0.0593 -4.70218,-1.61237 -0.86333,-1.35704 -0.58949,-3.20622 -0.58949,-4.73762 v -9.525 -37.04167 c 0,-3.78275 -0.62838,-8.19256 0.09,-11.90625 0.28337,-1.46473 1.35572,-2.53709 2.82046,-2.82046 z"
         id="path1258" /></g><g
       id="g1639"
       inkscape:export-filename="g1639.png"
       inkscape:export-xdpi="96"
       inkscape:export-ydpi="96"
       transform="translate(116.69006,-132.31657)"><rect
         style="fill:#fb0000;fill-opacity:1;stroke:none;stroke-width:0.200526;stroke-opacity:1"
         id="rect1262-7-6"
         width="98.880562"
         height="101.74668"
         x="227.85526"
         y="301.65741" /><path
         style="fill:#000003;fill-opacity:1;stroke:none;stroke-width:0.264583"
         d="m 232.09277,291.15985 c -9.9123,1.54811 -11.90625,9.85396 -11.90625,18.40466 v 63.5 c 0,7.94411 -2.15961,19.37781 2.65726,26.19374 5.47227,7.7433 16.93222,5.55625 25.12398,5.55625 h 50.00625 c 7.84093,0 16.90899,1.25995 24.60625,-0.21299 10.31478,-1.97379 11.37708,-10.91062 11.37708,-19.63076 v -63.23541 c 0,-7.86765 2.13757,-19.08381 -3.04747,-25.66458 -5.74145,-7.28692 -17.38656,-5.02708 -25.52752,-5.02708 h -48.94792 c -7.84463,0 -16.59625,-1.09353 -24.34166,0.11617 m 11.64166,57.29841 c 9.01938,-6.88208 19.71993,-12.16554 29.36875,-18.14407 2.07513,-1.28561 7.80653,-6.26533 10.25842,-4.41378 1.43167,1.08135 0.85408,4.05262 0.85408,5.62451 v 16.40417 c 9.63057,-5.12683 18.68884,-11.53028 28.04583,-17.145 2.37517,-1.42531 7.41601,-6.02641 10.30737,-5.22869 2.82258,0.77866 1.59888,8.45555 1.59888,10.73202 v 28.83959 c 0,2.28335 1.05675,8.29045 -0.86757,9.8671 -2.4003,1.96691 -7.92982,-2.92814 -9.98035,-4.19867 -9.65861,-5.98435 -19.62917,-11.5697 -29.10416,-17.83927 v 16.13959 c 0,1.66237 0.60166,4.75456 -0.85408,5.93513 -2.40612,1.95104 -8.18276,-3.14113 -10.25842,-4.40134 -9.75995,-5.92535 -19.29103,-12.57433 -29.36875,-17.93796 v 15.34583 c 0,1.964 0.51832,4.81859 -0.3855,6.61432 -1.66555,3.30941 -11.3036,3.32105 -12.98739,-7.9e-4 -0.66257,-1.30704 -0.38544,-3.07684 -0.38544,-4.49686 v -8.99583 c 0,-11.19532 -1.08403,-22.99759 0.0277,-34.13125 0.46612,-4.66752 11.14825,-4.97285 13.19903,-1.58618 1.09353,1.80552 0.53155,4.84082 0.53155,6.87784 z"
         id="path1256" /></g><g
       id="g1643"
       inkscape:export-filename="next.png"
       inkscape:export-xdpi="96"
       inkscape:export-ydpi="96"
       transform="translate(109.19302,-158.00604)"><rect
         style="fill:#fb0000;fill-opacity:1;stroke:none;stroke-width:0.200526;stroke-opacity:1"
         id="rect1262-7-9"
         width="98.880562"
         height="101.74668"
         x="353.24728"
         y="321.00363" /><path
         style="fill:#000003;fill-opacity:1;stroke:none;stroke-width:0.264583"
         d="m 356.27987,316.84932 c -9.9123,1.54811 -11.90625,9.85396 -11.90625,18.40466 v 63.5 c 0,7.94411 -2.15961,19.37781 2.65726,26.19374 5.47227,7.7433 16.93222,5.55625 25.12398,5.55625 h 50.00625 c 7.84093,0 16.90899,1.25995 24.60625,-0.21299 10.31478,-1.97379 11.37708,-10.91062 11.37708,-19.63076 v -63.23541 c 0,-7.86765 2.13757,-19.08381 -3.04747,-25.66458 -5.74145,-7.28692 -17.38656,-5.02708 -25.52752,-5.02708 h -48.94792 c -7.84463,0 -16.59625,-1.09353 -24.34166,0.11617 m 78.31666,61.53174 c -10.08301,5.3676 -19.57229,12.0605 -29.36875,17.93875 -2.07619,1.24592 -7.87003,6.3373 -10.25842,4.40055 -1.45574,-1.18057 -0.85408,-4.27276 -0.85408,-5.93513 v -16.13959 c -9.48028,6.27301 -19.43999,11.89144 -29.10416,17.87949 -2.07698,1.28666 -7.57124,6.08356 -9.99374,4.15845 -1.91437,-1.52109 -0.85418,-7.61127 -0.85418,-9.8671 v -28.83959 c 0,-2.27647 -1.22359,-9.95336 1.59893,-10.73202 2.84104,-0.78397 7.9729,3.79571 10.30732,5.22578 9.31677,5.70786 18.49226,11.8491 28.04583,17.14791 v -16.40417 c 0,-1.57189 -0.57759,-4.54316 0.85408,-5.62451 2.46856,-1.86425 8.15498,3.14457 10.25842,4.40743 9.67608,5.80866 19.14975,13.10905 29.36875,17.88583 v -16.13958 c 0,-2.04126 -0.55404,-5.05672 0.58949,-6.85429 1.06362,-1.67164 2.95037,-1.61238 4.70217,-1.61238 3.02155,-2.6e-4 8.01423,-0.812 8.43889,3.43959 1.10331,11.04741 0.0278,22.75813 0.0278,33.86666 0,3.7981 1.25095,10.31108 -0.41619,13.75728 -1.524,3.15066 -11.24294,3.39407 -12.89552,0.25506 -0.98108,-1.86346 -0.44662,-4.82018 -0.44662,-6.86859 z"
         id="path1254" /></g><path
       style="fill:#000000;stroke-width:0.0553633"
       id="path389"
       d="" /><path
       style="fill:#fb0000;fill-opacity:1;stroke-width:0.767659"
       d=""
       id="path1267"
       transform="matrix(0.26458333,0,0,0.26458333,219.70383,158.27377)" /><g
       id="g1508"
       inkscape:export-filename="..\folder.png"
       inkscape:export-xdpi="96"
       inkscape:export-ydpi="96"
       transform="matrix(0.94793071,0,0,0.94793071,-0.39645257,14.825435)"><g
         id="g1291"
         transform="matrix(0.93220448,0,0,0.93220448,-194.22132,32.410729)"
         style="fill:#fb0000;fill-opacity:1"
         inkscape:export-filename="g1291.png"
         inkscape:export-xdpi="96"
         inkscape:export-ydpi="96"><path
           style="fill:#fb0000;fill-opacity:1;stroke-width:0.264583"
           d="m 310.87658,193.83321 c -0.32911,-0.41964 -0.31975,-0.429 0.0999,-0.0999 0.25466,0.19972 0.46302,0.40808 0.46302,0.46302 0,0.21776 -0.21727,0.0776 -0.56291,-0.36313 z m -44.46586,-2.09896 c 0.191,-0.0764 0.4192,-0.067 0.50712,0.0209 0.0879,0.0879 -0.0684,0.15045 -0.34727,0.13897 -0.30822,-0.0127 -0.37092,-0.0754 -0.15985,-0.15986 z m -56.04205,-14.47124 c 0,-0.0549 0.20836,-0.2633 0.46302,-0.46302 0.41964,-0.32911 0.429,-0.31975 0.0999,0.0999 -0.34564,0.44073 -0.56291,0.58089 -0.56291,0.36313 z"
           id="path1305" /><path
           style="fill:#fb0000;fill-opacity:1;stroke-width:0.264583"
           d="m 200.17859,218.50561 c -1e-5,-20.51844 0.0314,-28.95142 0.0697,-18.73996 0.0384,10.21146 0.0384,26.99927 1e-5,37.30625 -0.0384,10.30697 -0.0697,1.95215 -0.0697,-18.56629 z m 121.44269,8.46666 c 10e-6,-15.71624 0.0319,-22.10672 0.0708,-14.20106 0.0389,7.90566 0.0389,20.76441 -2e-5,28.575 -0.0389,7.81059 -0.0708,1.34231 -0.0708,-14.37394 z m -44.61137,-5.09322 c -0.3291,-0.41965 -0.31975,-0.42901 0.0999,-0.0999 0.44073,0.34564 0.58089,0.56292 0.36312,0.56292 -0.0549,0 -0.2633,-0.20836 -0.46302,-0.46302 z m -0.29698,-30.1624 c 5.42065,-0.04 14.29081,-0.04 19.71146,0 5.42065,0.04 0.98557,0.0727 -9.85573,0.0727 -10.8413,0 -15.27638,-0.0327 -9.85573,-0.0727 z m -54.12596,-16.93321 c 3.88241,-0.0412 10.31179,-0.0413 14.2875,-8e-5 3.97571,0.0412 0.79919,0.0749 -7.05893,0.0749 -7.85812,4e-5 -11.11098,-0.0337 -7.22857,-0.0749 z"
           id="path1303" /><path
           style="fill:#fb0000;fill-opacity:1;stroke-width:0.264583"
           d="m 262.19325,181.13321 c -0.32911,-0.41964 -0.31975,-0.429 0.0999,-0.0999 0.44073,0.34564 0.58089,0.56292 0.36313,0.56292 -0.0549,0 -0.2633,-0.20836 -0.46302,-0.46303 z"
           id="path1301" /><path
           style="fill:#fb0000;fill-opacity:1;stroke-width:0.264583"
           d="m 254.52033,170.81447 c -0.32911,-0.41965 -0.31975,-0.42901 0.0999,-0.0999 0.44073,0.34564 0.58088,0.56292 0.36312,0.56292 -0.0549,0 -0.2633,-0.20836 -0.46302,-0.46302 z"
           id="path1299" /><path
           style="fill:#fb0000;fill-opacity:1;stroke-width:0.264583"
           d="m 244.18572,166.33425 c 0.191,-0.0764 0.4192,-0.067 0.50712,0.0209 0.0879,0.0879 -0.0683,0.15046 -0.34727,0.13897 -0.30822,-0.0127 -0.37091,-0.0754 -0.15985,-0.15985 z"
           id="path1297" /><path
           style="fill:#fb0000;fill-opacity:1;stroke-width:0.264583"
           d="m 208.64528,218.50561 c 10e-6,-20.66396 0.0314,-29.07832 0.0697,-18.69858 0.0383,10.37975 0.0383,27.28662 -1e-5,37.57084 -0.0384,10.28421 -0.0697,1.7917 -0.0697,-18.87226 z m 104.50939,8.59896 c 0,-15.93453 0.0318,-22.45321 0.0707,-14.48594 0.0389,7.96726 0.0389,21.00461 0,28.97187 -0.0389,7.96727 -0.0707,1.4486 -0.0707,-14.48593 z m -36.55446,-43.85461 c 5.50416,-0.0399 14.43385,-0.0399 19.84374,4e-5 5.40989,0.04 0.90648,0.0727 -10.00758,0.0726 -10.91406,-3e-5 -15.34034,-0.0327 -9.83616,-0.0727 z m -54.12686,-16.93323 c 3.96545,-0.0412 10.45435,-0.0412 14.41979,0 3.96545,0.0412 0.72099,0.0748 -7.20989,0.0748 -7.93089,0 -11.17534,-0.0337 -7.2099,-0.0748 z"
           id="path1295" /><path
           style="fill:#fb0000;fill-opacity:1;stroke-width:0.264583"
           d="m 213.43122,270.48292 c -6.38931,-1.0819 -11.33828,-5.73827 -12.70958,-11.95814 -0.37908,-1.71944 -0.4154,-5.9669 -0.34898,-40.81292 l 0.0741,-38.89375 0.60235,-1.77428 c 1.26128,-3.71527 4.28766,-7.20263 7.78079,-8.96596 3.03517,-1.53215 3.33886,-1.5547 20.99617,-1.55897 17.73564,-0.004 17.60543,-0.0144 20.93767,1.62605 2.61249,1.28612 4.41795,3.14911 7.94367,8.19676 3.60795,5.16536 3.92468,5.51471 5.77181,6.36608 l 1.31962,0.60824 21.82813,0.13229 c 23.95848,0.1452 22.32469,0.0351 25.68102,1.73019 3.16132,1.59656 6.24034,5.23248 7.451,8.79865 l 0.60235,1.77428 0.0752,30.42708 c 0.0671,27.12599 0.0292,30.6353 -0.34898,32.34626 -1.22368,5.53564 -5.33338,9.89574 -10.97306,11.64163 -1.34242,0.41557 -5.03353,0.4532 -48.41675,0.49351 -25.82995,0.024 -47.54992,-0.0557 -48.26661,-0.177 z m 95.49473,-8.81271 c 1.62978,-0.76229 2.93146,-2.04202 3.67132,-3.6094 l 0.56202,-1.19062 v -29.89792 -29.89791 l -0.62081,-1.24901 c -0.34144,-0.68696 -1.09873,-1.6808 -1.68286,-2.20853 -2.15403,-1.94603 -0.55584,-1.81939 -24.81612,-1.96642 l -21.82813,-0.13229 -1.71979,-0.61858 c -4.09099,-1.47146 -6.00701,-3.19625 -10.12004,-9.10996 -3.22499,-4.6369 -3.97973,-5.49539 -5.58709,-6.35512 -1.08801,-0.58193 -1.17729,-0.58549 -16.54516,-0.65946 -17.33808,-0.0834 -16.97441,-0.11767 -19.15646,1.80305 -0.64899,0.57126 -1.46213,1.60663 -1.80697,2.30082 l -0.62699,1.26217 v 38.36458 38.36458 l 0.56202,1.19062 c 0.73985,1.56738 2.04154,2.84711 3.67132,3.6094 l 1.32291,0.61877 h 46.69896 46.69896 z m -64.56817,-13.29086 c -1.52069,-0.53993 -2.79634,-1.68403 -3.70322,-3.32134 l -0.78485,-1.41699 v -16.53645 c 0,-16.21169 0.0108,-16.5599 0.55249,-17.73005 1.66905,-3.60581 6.06981,-5.17533 9.50167,-3.38875 2.89122,1.50513 26.49799,15.38069 27.07882,15.91635 1.89873,1.75107 2.68056,5.07979 1.75954,7.49144 -0.89747,2.34998 -1.57765,2.83048 -15.53277,10.97277 -7.28329,4.24953 -13.6733,7.88041 -14.20001,8.06863 -1.24784,0.4459 -3.32897,0.42114 -4.67167,-0.0556 z m 14.50718,-15.08851 c 5.41438,-3.15031 10.00065,-5.87249 10.1917,-6.0493 0.27835,-0.25758 -1.73586,-1.53861 -10.13673,-6.44692 -5.76627,-3.36901 -10.53626,-6.12547 -10.59998,-6.12547 -0.0637,0 -0.11587,5.54914 -0.11587,12.33143 0,11.00561 0.0439,12.31459 0.40828,12.17476 0.22455,-0.0862 4.83822,-2.73419 10.2526,-5.8845 z"
           id="path1293" /></g><path
         style="fill:#000000;fill-opacity:1;stroke:#000000;stroke-width:7.20378;stroke-dasharray:none;stroke-opacity:1"
         d="m -816.02403,444.29747 c -3.38055,-2.14388 -7.46049,-6.0241 -9.06652,-8.62272 l -2.92007,-4.72477 V 294.62054 c 0,-150.28897 -0.60504,-139.94092 8.65781,-148.07381 6.49034,-5.6986 10.05004,-5.97432 70.6625,-5.47323 l 51.56197,0.42627 4.69343,3.58146 c 2.58139,1.96981 8.91481,9.58642 14.07427,16.92581 13.27437,18.88293 25.03341,30.39037 35.17987,34.42716 l 8.12439,3.23231 78.53575,0.70606 c 56.1229,0.50455 79.30862,1.15583 81.24389,2.28211 3.45568,2.0111 9.37847,8.38812 11.3441,12.21409 1.08539,2.11262 1.51952,33.40285 1.51952,109.51941 v 106.5618 l -2.92007,4.72477 c -1.60603,2.59862 -5.68596,6.47884 -9.06652,8.62272 l -6.14645,3.89797 h -164.66571 -164.66571 z m 157.749,-59.94881 c 44.96811,-25.84006 64.1825,-37.49658 69.48934,-42.15604 8.85454,-7.77439 10.78974,-17.64592 5.75404,-29.3517 -2.81269,-6.53828 -2.84777,-6.5627 -45.02265,-31.35161 -62.46226,-36.7131 -63.40383,-37.13825 -74.16475,-33.48835 -7.08537,2.40323 -11.85284,6.2844 -14.78891,12.03957 -2.54604,4.99065 -2.67747,8.14571 -2.67747,64.27128 0,64.06014 -0.15186,62.67576 7.66498,69.87832 5.96967,5.50055 8.65532,6.52755 17.18567,6.57187 7.68633,0.0399 8.7866,-0.45403 36.55975,-16.41334 z"
         id="path1376"
         transform="matrix(0.26458333,0,0,0.26458333,219.70383,158.27377)" /><path
         style="fill:#000000;fill-opacity:1;stroke:#000000;stroke-width:0.542817;stroke-opacity:1"
         d="m -688.99102,366.11022 c -0.21242,-0.32816 -0.44891,-19.50068 -0.52553,-42.60559 -0.10707,-32.2899 -0.007,-42.00892 0.43169,-42.00892 0.63264,0 1.86827,0.6965 23.16559,13.058 32.18417,18.6805 49.08034,28.98424 49.06433,29.92074 -0.003,0.19069 -0.70341,0.79746 -1.55589,1.3484 -4.51817,2.91996 -64.49658,37.9378 -68.72419,40.12398 -1.15043,0.59491 -1.5537,0.63041 -1.856,0.16339 z"
         id="path1496"
         transform="matrix(0.26458333,0,0,0.26458333,219.70383,158.27377)" /></g></g></svg>
